HIERARCHY
ROOT root
{
	OFFSET 0.000000 0.000000 0.000000
	CHANNELS 6 Xposition Yposition Zposition Zrotation Yrotation Xrotation
	JOINT lhip
	{
		OFFSET 0.058581 -0.082280 -0.017664
		CHANNELS 3 Zrotation Yrotation Xrotation
		JOINT lknee
		{
			OFFSET 0.043451 -0.386469 0.008037
			CHANNELS 3 Zrotation Yrotation Xrotation
			JOINT lankle
			{
				OFFSET -0.014790 -0.426874 -0.037428
				CHANNELS 3 Zrotation Yrotation Xrotation
				JOINT ltoe
				{
					OFFSET 0.041054 -0.060286 0.122042
					CHANNELS 3 Zrotation Yrotation Xrotation
					End Site
					{
						OFFSET 0.000000 0.000000 0.000000
					}
				}
			}
		}
	}
	JOINT rhip
	{
		OFFSET -0.060310 -0.090513 -0.013543
		CHANNELS 3 Zrotation Yrotation Xrotation
		JOINT rknee
		{
			OFFSET -0.043257 -0.383688 -0.004843
			CHANNELS 3 Zrotation Yrotation Xrotation
			JOINT rankle
			{
				OFFSET 0.019056 -0.420046 -0.034562
				CHANNELS 3 Zrotation Yrotation Xrotation
				JOINT rtoe
				{
					OFFSET -0.034840 -0.062106 0.130323
					CHANNELS 3 Zrotation Yrotation Xrotation
					End Site
					{
						OFFSET 0.000000 0.000000 0.000000
					}
				}
			}
		}
	}
	JOINT lowerback
	{
		OFFSET 0.004439 0.124404 -0.038385
		CHANNELS 3 Zrotation Yrotation Xrotation
		JOINT upperback
		{
			OFFSET 0.004488 0.137956 0.026820
			CHANNELS 3 Zrotation Yrotation Xrotation
			JOINT chest
			{
				OFFSET -0.002265 0.056032 0.002855
				CHANNELS 3 Zrotation Yrotation Xrotation
				JOINT lowerneck
				{
					OFFSET -0.013390 0.211636 -0.033468
					CHANNELS 3 Zrotation Yrotation Xrotation
					JOINT upperneck
					{
						OFFSET 0.010113 0.088937 0.050410
						CHANNELS 3 Zrotation Yrotation Xrotation
						End Site
						{
							OFFSET 0.000000 0.000000 0.000000
						}
					}
				}
				JOINT lclavicle
				{
					OFFSET 0.071702 0.114000 -0.018898
					CHANNELS 3 Zrotation Yrotation Xrotation
					JOINT lshoulder
					{
						OFFSET 0.122921 0.045205 -0.019046
						CHANNELS 3 Zrotation Yrotation Xrotation
						JOINT lelbow
						{
							OFFSET 0.255332 -0.015649 -0.022946
							CHANNELS 3 Zrotation Yrotation Xrotation
							JOINT lwrist
							{
								OFFSET 0.265709 0.012698 -0.007375
								CHANNELS 3 Zrotation Yrotation Xrotation
								End Site
								{
									OFFSET 0.000000 0.000000 0.000000
								}
							}
						}
					}
				}
				JOINT rclavicle
				{
					OFFSET -0.082954 0.112472 -0.023707
					CHANNELS 3 Zrotation Yrotation Xrotation
					JOINT rshoulder
					{
						OFFSET -0.113228 0.046853 -0.008472
						CHANNELS 3 Zrotation Yrotation Xrotation
						JOINT relbow
						{
							OFFSET -0.260127 -0.014369 -0.031269
							CHANNELS 3 Zrotation Yrotation Xrotation
							JOINT rwrist
							{
								OFFSET -0.269108 0.006794 -0.006027
								CHANNELS 3 Zrotation Yrotation Xrotation
								End Site
								{
									OFFSET 0.000000 0.000000 0.000000
								}
							}
						}
					}
				}
			}
		}
	}
}
MOTION
Frames: 16
Frame Time: 0.033333
1.044673 0.756628 0.954004 -83.783451 -10.939800 94.582557 26.678200 0.308599 -7.834411 -1.184424 -22.855492 21.322245 -8.661702 6.672451 -12.945662 0.000000 -0.000000 0.000000 -20.177876 -8.078845 -30.606712 3.425429 2.912728 42.535304 6.677663 -1.539727 -20.398876 0.000000 -0.000000 0.000000 -1.920006 -1.500645 24.516584 -0.620442 0.087568 8.374733 -0.705233 -1.934365 1.887664 2.164854 -5.096583 10.009146 0.948113 -9.559789 8.479165 -20.108069 9.526495 5.313271 -49.988520 5.123435 -1.941064 6.649734 -27.265151 6.327398 -2.140492 -4.175490 -10.547524 18.562970 2.465986 2.765077 46.005770 3.611915 4.524642 -3.194763 37.835593 4.310838 8.238217 3.948113 -3.047950 
1.040766 0.774438 0.959052 -84.679337 -11.615740 94.905004 26.352305 -0.070892 -8.228268 -1.732708 -21.951248 23.012314 -5.633265 6.415405 -13.467216 0.000000 -0.000000 0.000000 -19.403199 -7.503958 -30.613741 3.560146 3.190797 41.894126 5.913234 -1.871143 -20.253441 0.000000 -0.000000 0.000000 -2.260443 -1.580576 24.086475 -0.573435 -0.035596 8.564475 -0.735530 -2.017370 1.748604 2.200092 -5.313075 10.240858 1.121194 -9.342387 8.297937 -20.544066 9.974088 6.026053 -51.403876 4.923520 -2.090786 6.861420 -27.148719 7.144285 -2.401315 -4.007223 -11.355616 19.133641 2.214253 3.328960 47.647429 4.517981 4.608727 -5.053842 37.663757 2.794121 6.348360 4.111988 -3.541174 
1.038105 0.791236 0.965413 -85.365371 -11.835730 95.052156 25.164043 -1.104483 -10.059241 -1.957386 -19.564152 28.601892 -3.029223 10.836258 -16.514699 0.000000 -0.000000 0.000000 -18.533127 -7.028724 -29.853286 3.906374 3.199155 40.164206 5.570298 -2.124063 -19.370994 0.000000 -0.000000 0.000000 -2.210936 -1.233439 24.336312 -0.399547 -0.343680 7.627895 -0.621057 -2.229301 2.503521 2.040626 -5.308176 9.931493 0.855697 -8.354053 8.769888 -20.854095 10.160808 6.224731 -52.825979 4.471965 -1.792328 6.985284 -27.307463 8.051120 -2.807239 -3.612870 -11.768697 19.518664 1.758892 3.107102 49.154082 5.103014 5.104755 -6.280065 36.663341 1.900077 7.160342 3.683005 -4.575874 
1.035308 0.807201 0.971244 -86.596995 -11.258039 95.433560 24.187376 -2.110001 -12.011071 -1.087776 -16.365640 35.092743 -0.819744 14.112353 -18.606824 0.000000 -0.000000 0.000000 -17.029248 -6.150243 -29.164572 4.294658 2.979198 37.961095 5.181399 -2.066109 -18.216632 0.000000 -0.000000 0.000000 -1.930123 -0.679411 24.145746 -0.026279 -0.125738 6.812543 -0.480733 -2.190439 3.016223 1.876745 -5.295300 10.254326 0.659789 -7.621356 8.853933 -20.862301 10.229237 6.562396 -54.301617 3.855537 -1.247989 7.090753 -27.667627 9.248494 -3.465473 -3.146779 -11.744678 19.811202 1.358229 3.423511 50.583870 4.951212 5.471704 -7.745566 36.515942 1.315213 7.894617 3.832820 -5.984650 
1.033609 0.821859 0.975400 -88.122493 -10.404117 95.348848 22.860198 -3.521563 -13.763155 -1.030503 -13.975343 42.186628 0.789599 15.223736 -20.562765 0.000000 -0.000000 0.000000 -15.387558 -4.920895 -28.221485 4.530717 2.863297 35.926694 4.723490 -2.113809 -16.831545 0.000000 -0.000000 0.000000 -1.532984 -0.126230 23.502235 0.354091 -0.138867 8.513929 -0.630168 -1.856158 2.812565 2.156504 -4.538847 9.212428 0.472791 -7.739367 9.194589 -20.358751 9.827764 6.226213 -56.099163 3.385602 -0.524660 7.685160 -28.609540 8.976314 -4.392067 -2.726262 -12.484147 19.318461 1.638966 3.490395 52.940168 5.422423 6.196190 -9.725550 36.236537 -0.131551 8.951053 3.413086 -7.570038 
1.030745 0.834406 0.978319 -89.709594 -9.713813 95.512073 20.799212 -4.831751 -16.040604 -1.954223 -11.645735 49.039015 1.757368 16.402106 -21.826424 0.000000 -0.000000 0.000000 -13.885685 -4.156862 -27.382209 4.647122 2.964213 33.835481 4.652597 -1.492376 -15.675052 0.000000 -0.000000 0.000000 -1.365298 0.666471 22.720980 0.588869 -0.261773 8.558852 -0.613113 -1.544554 3.506837 2.025841 -3.856535 9.087871 0.465511 -7.317774 8.989378 -20.178228 9.304988 6.083156 -57.384287 2.768568 -0.084411 8.455446 -28.663131 7.890249 -4.004106 -2.781952 -12.845525 19.028330 1.816658 3.778392 54.897957 6.049020 6.571552 -11.107509 34.785918 -1.179212 9.864283 2.905447 -8.946453 
1.028230 0.846843 0.981408 -90.877974 -8.793437 95.509560 18.576185 -5.425535 -18.556756 -2.703141 -9.023457 54.780307 2.142439 15.893552 -22.593793 0.000000 -0.000000 0.000000 -12.238769 -3.194162 -26.183077 4.579936 2.809656 31.585880 4.549816 -1.309026 -14.689360 0.000000 -0.000000 0.000000 -1.103809 1.275512 22.323491 0.934045 -0.415892 8.141848 -0.589622 -1.243526 3.915354 1.972924 -3.649709 9.589070 0.783616 -6.893146 8.974137 -20.354556 9.076391 6.014211 -58.100102 2.094660 0.251431 9.207118 -28.884144 6.928472 -3.888248 -2.436001 -12.789573 19.366458 1.521846 4.122952 56.291223 6.650572 6.801328 -12.248514 33.653535 -1.898255 9.163404 2.369125 -9.286437 
1.024910 0.858253 0.984601 -91.904672 -7.729153 95.428602 15.931501 -5.484588 -20.693307 -2.955257 -6.423100 58.397880 2.551113 15.189005 -23.629061 0.000000 -0.000000 0.000000 -10.382541 -2.475623 -24.664403 4.342532 2.992367 29.168268 5.026577 -1.083198 -13.595287 0.000000 -0.000000 0.000000 -0.641406 1.720188 22.928583 1.043922 -0.309853 6.327756 -0.379279 -1.005075 4.259304 1.619375 -4.235107 10.383248 1.114626 -5.780943 8.902622 -20.833470 9.326511 5.766012 -58.175226 1.658123 0.469978 9.439190 -29.274618 6.995056 -4.308840 -2.317979 -12.363213 19.953143 0.795382 4.137475 57.186008 6.773211 7.004452 -12.508655 32.103928 -2.617621 7.360802 2.520900 -9.130730 
1.022714 0.867355 0.986415 -92.741542 -6.942124 95.175296 12.481099 -5.830045 -22.480473 -3.115609 -3.733516 59.981802 3.077935 14.607953 -24.054486 0.000000 -0.000000 0.000000 -9.010741 -1.744109 -23.359209 4.140241 3.009540 27.430868 5.242340 -0.585448 -12.955489 0.000000 -0.000000 0.000000 -0.246599 2.163093 22.450584 1.304752 -0.683253 6.177377 -0.410928 -0.739236 4.904682 1.598932 -3.909391 10.250628 0.962372 -5.750195 9.148135 -20.642326 8.927303 5.374073 -59.056557 1.030456 1.199296 10.119443 -29.923027 5.955128 -4.026737 -2.490316 -11.994927 19.861780 0.655124 4.005248 58.696061 7.174903 7.495495 -13.739312 31.164195 -4.037776 7.315074 2.233456 -9.680641 
1.019196 0.875084 0.987217 -93.009867 -5.905915 94.556093 9.030339 -5.977488 -23.229381 -3.856016 -1.953282 58.755998 2.875432 13.112644 -23.771985 0.000000 -0.000000 0.000000 -7.285177 -1.479801 -21.411237 3.743410 2.974253 25.534137 4.924732 -0.231168 -12.540206 0.000000 -0.000000 0.000000 0.587557 2.146227 22.022697 1.528602 -1.182502 6.478938 -0.399856 -0.467207 5.128257 1.102408 -3.394833 10.618596 1.148647 -5.051114 8.839450 -20.546487 8.266300 4.993227 -59.872449 0.938657 1.808051 10.764329 -31.228809 5.109220 -4.092817 -2.228593 -12.060691 19.577287 0.870812 4.203221 59.900878 7.358354 7.441927 -14.832213 30.918096 -5.173403 8.185351 2.184817 -10.328294 
1.016079 0.881442 0.987260 -93.309173 -5.062033 93.928290 5.456840 -6.268999 -23.056437 -4.921068 -0.481482 54.790546 2.282667 11.282337 -23.994786 0.000000 -0.000000 0.000000 -6.076607 -0.694532 -19.902155 3.609640 2.636725 24.507103 5.036652 0.060967 -12.613305 0.000000 -0.000000 0.000000 1.052405 2.192001 21.427971 1.833465 -1.709244 7.106323 -0.303347 -0.184862 5.327572 1.021064 -2.915086 10.527257 1.066421 -5.052272 8.889289 -20.507323 7.644022 4.401948 -60.629690 0.570503 2.455129 11.586948 -32.210725 3.604380 -4.657800 -2.407282 -11.269601 19.331646 1.114974 4.148333 60.715591 7.177201 7.820100 -15.864717 31.195339 -6.327504 8.815128 1.921240 -10.421602 
1.012806 0.887054 0.986562 -93.328036 -4.100989 93.578903 2.152431 -6.870742 -22.364097 -5.779604 -0.603596 48.966537 1.795271 9.951585 -23.668070 0.000000 -0.000000 0.000000 -4.647139 0.221432 -18.796311 3.230130 2.188852 23.649417 4.752707 0.013048 -12.475559 0.000000 -0.000000 0.000000 1.647940 1.857053 21.309197 1.975853 -2.041194 5.579338 -0.120016 -0.163028 6.228849 0.727186 -2.517960 11.388545 1.083211 -4.661413 8.474315 -20.304519 7.143975 4.483312 -61.362703 0.723075 3.314670 12.385649 -33.439427 2.771589 -4.068817 -2.992547 -11.135887 18.847121 1.260400 4.541611 61.491412 7.069855 8.083592 -16.136675 31.416571 -6.011338 9.008648 1.758256 -10.873534 
1.010274 0.892074 0.985233 -93.274145 -2.814623 93.368789 -0.284178 -7.973803 -21.179875 -6.113911 -2.808651 42.317095 2.046501 9.587704 -23.171850 0.000000 -0.000000 0.000000 -2.896021 0.910383 -17.874964 3.229700 2.103760 22.806682 4.347947 -0.520903 -12.322402 0.000000 -0.000000 0.000000 2.318647 1.655805 20.130271 2.446358 -2.396353 5.830403 0.066112 -0.257305 6.523280 0.839752 -2.201992 11.597175 0.942576 -4.910868 8.977469 -20.294666 6.844948 4.327467 -62.076621 0.290447 4.149421 13.091334 -34.361407 1.939260 -3.624799 -3.042013 -11.045206 18.485678 1.221792 4.620002 61.820299 7.206799 8.339301 -16.221605 31.467798 -5.918971 8.575367 2.086034 -11.504354 
1.006148 0.898293 0.986571 -93.017034 -1.571826 92.435239 -2.247224 -7.732275 -18.532797 -6.405700 -6.353913 35.687545 3.271861 10.621275 -22.694479 0.000000 -0.000000 0.000000 -0.874061 0.933601 -15.725856 3.249070 2.924058 21.543061 4.528012 -1.568406 -12.792175 0.000000 -0.000000 0.000000 2.417926 1.131337 21.343006 2.834685 -2.097218 4.435291 0.398389 -0.052013 6.732053 1.975052 -2.406918 11.106565 0.517998 -4.584410 9.139533 -20.727042 8.405116 3.377831 -61.215187 -0.666366 6.878177 11.776607 -35.527819 3.914630 -0.614641 -1.343828 -13.211432 20.021300 -0.991730 2.646168 60.862245 6.413517 10.218153 -15.723940 30.988131 -5.721750 5.918881 1.812485 -11.002777 
1.003445 0.904325 0.986294 -93.442139 -0.372688 91.765808 -2.921088 -7.115102 -15.707776 -5.997382 -8.146638 28.771888 3.564642 10.633753 -21.579597 0.000000 -0.000000 0.000000 0.927490 1.673988 -14.392249 3.016151 2.620032 20.690294 4.123664 -1.634692 -13.254257 0.000000 -0.000000 0.000000 2.229437 1.217570 21.016474 3.446465 -1.902744 4.345491 0.628142 -0.083461 7.091694 3.263321 -1.669588 11.218300 0.206666 -6.030396 9.416559 -20.577195 8.539424 3.614988 -61.433503 -1.618901 8.822970 12.791521 -36.198332 3.909443 -0.346435 -2.522927 -15.464862 20.426374 -1.546684 2.571408 61.223677 6.534356 11.077438 -16.970533 30.762095 -6.056896 5.124841 2.337291 -12.884403 
0.999258 0.909666 0.985928 -93.884359 0.726940 91.097767 -3.134352 -6.226640 -12.437374 -5.106333 -9.377415 22.513309 3.699662 10.077134 -18.542300 0.000000 -0.000000 0.000000 2.624658 1.867791 -12.960822 2.871693 2.799201 19.927636 3.527436 -1.332154 -13.614051 0.000000 -0.000000 0.000000 2.000452 1.209616 19.847506 3.739300 -1.907497 5.506837 0.848919 -0.135506 6.821448 3.617413 -0.764619 11.589485 0.038874 -5.641546 9.619012 -20.405369 8.513910 3.365820 -61.552572 -1.806777 9.240380 13.119435 -37.299604 3.831648 -0.569416 -2.275115 -15.310282 20.475256 -1.676156 2.402702 61.950981 6.374073 11.163800 -17.516429 30.185406 -6.384419 5.464635 2.451462 -13.244484 
